<svg xmlns="http://www.w3.org/2000/svg" xmlns:xlink="http://www.w3.org/1999/xlink" width="100" zoomAndPan="magnify" viewBox="0 0 75 30.000001" height="40" preserveAspectRatio="xMidYMid meet" version="1.0"><defs><g/><clipPath id="456909f3fb"><path d="M 27 17 L 48 17 L 48 20.382812 L 27 20.382812 Z M 27 17 " clip-rule="nonzero"/></clipPath><clipPath id="671e063b54"><path d="M 27 8.042969 L 38 8.042969 L 38 16 L 27 16 Z M 27 8.042969 " clip-rule="nonzero"/></clipPath><clipPath id="dc7b8a1d2c"><path d="M 37 8.042969 L 48 8.042969 L 48 16 L 37 16 Z M 37 8.042969 " clip-rule="nonzero"/></clipPath><clipPath id="fe98aa421e"><path d="M 24.542969 10 L 50.671875 10 L 50.671875 18 L 24.542969 18 Z M 24.542969 10 " clip-rule="nonzero"/></clipPath><clipPath id="81a7cb0591"><path d="M 37.5 17 L 48 17 L 48 19.65625 L 37.5 19.65625 Z M 37.5 17 " clip-rule="nonzero"/></clipPath><clipPath id="6bd78434e5"><path d="M 37.5 8.042969 L 38 8.042969 L 38 16 L 37.5 16 Z M 37.5 8.042969 " clip-rule="nonzero"/></clipPath><clipPath id="f5771f8736"><path d="M 37.5 8.042969 L 48 8.042969 L 48 16 L 37.5 16 Z M 37.5 8.042969 " clip-rule="nonzero"/></clipPath><clipPath id="328866ac38"><path d="M 37.5 14 L 38 14 L 38 17 L 37.5 17 Z M 37.5 14 " clip-rule="nonzero"/></clipPath><clipPath id="809813bfb5"><path d="M 37.5 14 L 38 14 L 38 18 L 37.5 18 Z M 37.5 14 " clip-rule="nonzero"/></clipPath><clipPath id="f67eadc78b"><path d="M 37.5 14 L 48 14 L 48 17 L 37.5 17 Z M 37.5 14 " clip-rule="nonzero"/></clipPath><clipPath id="a54e91457d"><path d="M 37.5 14 L 48 14 L 48 18 L 37.5 18 Z M 37.5 14 " clip-rule="nonzero"/></clipPath><clipPath id="7f5acacb7d"><path d="M 37.5 10 L 50.566406 10 L 50.566406 18 L 37.5 18 Z M 37.5 10 " clip-rule="nonzero"/></clipPath></defs><path fill="#ffffff" d="M 46.011719 18.1875 L 46.171875 18.929688 L 45.871094 18.929688 L 45.566406 18.1875 L 46.011719 18.1875 " fill-opacity="1" fill-rule="nonzero"/><path fill="#1d1d1b" d="M 45.902344 18.882812 L 46.113281 18.882812 L 45.972656 18.238281 L 45.636719 18.238281 Z M 46.230469 18.976562 L 45.839844 18.976562 L 45.492188 18.140625 L 46.050781 18.140625 L 46.230469 18.976562 " fill-opacity="1" fill-rule="nonzero"/><path fill="#ffffff" d="M 29.199219 18.1875 L 29.042969 18.929688 L 29.339844 18.929688 L 29.648438 18.1875 L 29.199219 18.1875 " fill-opacity="1" fill-rule="nonzero"/><path fill="#1d1d1b" d="M 29.101562 18.882812 L 29.308594 18.882812 L 29.574219 18.238281 L 29.238281 18.238281 Z M 29.371094 18.976562 L 28.984375 18.976562 L 29.164062 18.140625 L 29.71875 18.140625 L 29.371094 18.976562 " fill-opacity="1" fill-rule="nonzero"/><g clip-path="url(#456909f3fb)"><path fill="#ffffff" d="M 47.886719 20.335938 L 47.28125 17.523438 L 46.460938 17.523438 L 46.460938 17.359375 L 28.917969 17.359375 L 28.882812 17.523438 L 27.933594 17.523438 L 27.328125 20.335938 L 27.875 20.335938 L 28.753906 18.222656 L 46.460938 18.222656 L 47.339844 20.335938 L 47.886719 20.335938 " fill-opacity="1" fill-rule="nonzero"/><path fill="#1d1d1b" d="M 47.371094 20.285156 L 47.828125 20.285156 L 47.242188 17.574219 L 46.414062 17.574219 L 46.414062 17.40625 L 28.957031 17.40625 L 28.921875 17.574219 L 27.972656 17.574219 L 27.386719 20.285156 L 27.84375 20.285156 L 28.722656 18.171875 L 46.492188 18.171875 Z M 47.945312 20.382812 L 47.308594 20.382812 L 46.429688 18.269531 L 28.785156 18.269531 L 27.90625 20.382812 L 27.269531 20.382812 L 27.894531 17.476562 L 28.84375 17.476562 L 28.878906 17.3125 L 46.507812 17.3125 L 46.507812 17.476562 L 47.316406 17.476562 L 47.945312 20.382812 " fill-opacity="1" fill-rule="nonzero"/></g><g clip-path="url(#671e063b54)"><path fill="#ffffff" d="M 27.328125 11.613281 C 27.328125 11.613281 27.511719 10.039062 27.609375 9.402344 C 27.703125 8.769531 28.128906 8.09375 28.9375 8.09375 C 29.746094 8.09375 35.921875 8.09375 36.585938 8.09375 C 37.25 8.09375 37.605469 8.636719 37.605469 9.402344 C 37.605469 10.167969 37.605469 15.695312 37.605469 15.695312 L 28.179688 15.695312 L 27.328125 11.613281 " fill-opacity="1" fill-rule="nonzero"/><path fill="#1d1d1b" d="M 28.214844 15.644531 L 37.558594 15.644531 L 37.558594 9.402344 C 37.558594 8.625 37.1875 8.140625 36.585938 8.140625 L 28.9375 8.140625 C 28.132812 8.140625 27.742188 8.824219 27.65625 9.410156 C 27.566406 10.011719 27.390625 11.488281 27.375 11.609375 Z M 37.652344 15.742188 L 28.140625 15.742188 L 28.132812 15.703125 L 27.28125 11.613281 L 27.28125 11.605469 C 27.28125 11.589844 27.46875 10.023438 27.5625 9.394531 C 27.664062 8.722656 28.128906 8.042969 28.9375 8.042969 L 36.585938 8.042969 C 37.246094 8.042969 37.652344 8.566406 37.652344 9.402344 L 37.652344 15.742188 " fill-opacity="1" fill-rule="nonzero"/></g><g clip-path="url(#dc7b8a1d2c)"><path fill="#ffffff" d="M 47.886719 11.613281 C 47.886719 11.613281 47.699219 10.039062 47.605469 9.402344 C 47.507812 8.769531 47.082031 8.09375 46.273438 8.09375 C 45.464844 8.09375 39.292969 8.09375 38.625 8.09375 C 37.960938 8.09375 37.605469 8.636719 37.605469 9.402344 C 37.605469 10.167969 37.605469 15.695312 37.605469 15.695312 L 47.035156 15.695312 L 47.886719 11.613281 " fill-opacity="1" fill-rule="nonzero"/><path fill="#1d1d1b" d="M 37.652344 15.644531 L 46.996094 15.644531 L 47.835938 11.609375 C 47.824219 11.488281 47.648438 10.011719 47.558594 9.410156 C 47.46875 8.824219 47.082031 8.140625 46.273438 8.140625 L 38.625 8.140625 C 38.027344 8.140625 37.652344 8.625 37.652344 9.402344 Z M 47.074219 15.742188 L 37.558594 15.742188 L 37.558594 9.402344 C 37.558594 8.566406 37.96875 8.042969 38.625 8.042969 L 46.273438 8.042969 C 47.085938 8.042969 47.550781 8.722656 47.652344 9.394531 C 47.746094 10.023438 47.929688 11.589844 47.933594 11.605469 L 47.933594 11.613281 L 47.929688 11.621094 L 47.074219 15.742188 " fill-opacity="1" fill-rule="nonzero"/></g><path fill="#ffffff" d="M 28.324219 15.054688 C 28.324219 15.054688 28.417969 14.414062 29.484375 14.414062 L 36.882812 14.414062 C 37.28125 14.414062 37.605469 14.742188 37.605469 15.148438 L 37.605469 16.972656 L 28.605469 16.972656 L 27.847656 15.960938 L 28.324219 15.054688 " fill-opacity="1" fill-rule="nonzero"/><path fill="#1d1d1b" d="M 28.628906 16.925781 L 37.558594 16.925781 L 37.558594 15.148438 C 37.558594 14.769531 37.253906 14.460938 36.882812 14.460938 L 29.484375 14.460938 C 28.476562 14.460938 28.375 15.035156 28.371094 15.0625 L 28.367188 15.078125 L 27.902344 15.953125 Z M 37.652344 17.019531 L 28.582031 17.019531 L 27.789062 15.964844 L 28.28125 15.039062 C 28.296875 14.953125 28.445312 14.367188 29.484375 14.367188 L 36.882812 14.367188 C 37.308594 14.367188 37.652344 14.71875 37.652344 15.148438 L 37.652344 17.019531 " fill-opacity="1" fill-rule="nonzero"/><path fill="#ffffff" d="M 46.886719 15.054688 C 46.886719 15.054688 46.796875 14.414062 45.726562 14.414062 L 38.332031 14.414062 C 37.929688 14.414062 37.605469 14.742188 37.605469 15.148438 L 37.605469 16.972656 L 46.605469 16.972656 L 47.367188 15.960938 L 46.886719 15.054688 " fill-opacity="1" fill-rule="nonzero"/><path fill="#1d1d1b" d="M 37.652344 16.925781 L 46.582031 16.925781 L 47.3125 15.953125 L 46.839844 15.0625 C 46.835938 15.035156 46.738281 14.460938 45.726562 14.460938 L 38.332031 14.460938 C 37.957031 14.460938 37.652344 14.769531 37.652344 15.148438 Z M 46.628906 17.019531 L 37.558594 17.019531 L 37.558594 15.148438 C 37.558594 14.71875 37.90625 14.367188 38.332031 14.367188 L 45.726562 14.367188 C 46.769531 14.367188 46.917969 14.953125 46.933594 15.039062 L 47.421875 15.964844 L 46.628906 17.019531 " fill-opacity="1" fill-rule="nonzero"/><g clip-path="url(#fe98aa421e)"><path fill="#ffffff" d="M 49.640625 10.988281 L 48.722656 10.988281 C 48.339844 10.988281 48 11.242188 47.886719 11.613281 L 46.558594 15.863281 L 28.652344 15.863281 L 27.328125 11.613281 C 27.210938 11.242188 26.871094 10.988281 26.488281 10.988281 L 25.574219 10.988281 C 24.972656 10.988281 24.546875 11.585938 24.738281 12.164062 L 26.273438 16.878906 C 26.460938 17.453125 26.988281 17.839844 27.585938 17.839844 L 47.628906 17.839844 C 48.222656 17.839844 48.753906 17.453125 48.941406 16.878906 L 50.476562 12.164062 C 50.664062 11.585938 50.238281 10.988281 49.640625 10.988281 " fill-opacity="1" fill-rule="nonzero"/><path fill="#1d1d1b" d="M 25.574219 11.035156 C 25.300781 11.035156 25.054688 11.164062 24.898438 11.386719 C 24.738281 11.609375 24.695312 11.886719 24.78125 12.148438 L 26.316406 16.863281 C 26.5 17.417969 27.007812 17.792969 27.585938 17.792969 L 47.628906 17.792969 C 48.203125 17.792969 48.714844 17.417969 48.894531 16.863281 L 50.429688 12.148438 C 50.515625 11.886719 50.472656 11.609375 50.316406 11.386719 C 50.15625 11.164062 49.910156 11.035156 49.640625 11.035156 L 48.722656 11.035156 C 48.359375 11.035156 48.039062 11.273438 47.929688 11.628906 L 46.59375 15.910156 L 28.617188 15.910156 L 27.28125 11.628906 C 27.171875 11.273438 26.851562 11.035156 26.488281 11.035156 Z M 47.628906 17.890625 L 27.585938 17.890625 C 26.96875 17.890625 26.421875 17.488281 26.226562 16.894531 L 24.691406 12.179688 C 24.597656 11.886719 24.644531 11.578125 24.820312 11.332031 C 24.996094 11.082031 25.269531 10.941406 25.574219 10.941406 L 26.488281 10.941406 C 26.894531 10.941406 27.25 11.203125 27.371094 11.597656 L 28.6875 15.816406 L 46.523438 15.816406 L 47.839844 11.597656 C 47.960938 11.203125 48.316406 10.941406 48.722656 10.941406 L 49.640625 10.941406 C 49.941406 10.941406 50.214844 11.082031 50.390625 11.332031 C 50.566406 11.578125 50.613281 11.886719 50.519531 12.179688 L 48.984375 16.894531 C 48.789062 17.488281 48.246094 17.890625 47.628906 17.890625 " fill-opacity="1" fill-rule="nonzero"/></g><path fill="#1d1d1b" d="M 46.011719 18.1875 L 46.171875 18.929688 L 45.871094 18.929688 L 45.566406 18.1875 L 46.011719 18.1875 " fill-opacity="1" fill-rule="nonzero"/><path fill="#ffffff" d="M 45.902344 18.882812 L 46.113281 18.882812 L 45.972656 18.238281 L 45.636719 18.238281 Z M 46.230469 18.976562 L 45.839844 18.976562 L 45.492188 18.140625 L 46.050781 18.140625 L 46.230469 18.976562 " fill-opacity="1" fill-rule="nonzero"/><g clip-path="url(#81a7cb0591)"><path fill="#1d1d1b" d="M 47.886719 20.335938 L 47.28125 17.523438 L 46.460938 17.523438 L 46.460938 17.359375 L 28.917969 17.359375 L 28.882812 17.523438 L 27.933594 17.523438 L 27.328125 20.335938 L 27.875 20.335938 L 28.753906 18.222656 L 46.460938 18.222656 L 47.339844 20.335938 L 47.886719 20.335938 " fill-opacity="1" fill-rule="nonzero"/><path fill="#ffffff" d="M 47.371094 20.285156 L 47.828125 20.285156 L 47.242188 17.574219 L 46.414062 17.574219 L 46.414062 17.40625 L 28.957031 17.40625 L 28.921875 17.574219 L 27.972656 17.574219 L 27.386719 20.285156 L 27.84375 20.285156 L 28.722656 18.171875 L 46.492188 18.171875 Z M 47.945312 20.382812 L 47.308594 20.382812 L 46.429688 18.269531 L 28.785156 18.269531 L 27.90625 20.382812 L 27.269531 20.382812 L 27.894531 17.476562 L 28.84375 17.476562 L 28.878906 17.3125 L 46.507812 17.3125 L 46.507812 17.476562 L 47.316406 17.476562 L 47.945312 20.382812 " fill-opacity="1" fill-rule="nonzero"/></g><g clip-path="url(#6bd78434e5)"><path fill="#1d1d1b" d="M 27.328125 11.613281 C 27.328125 11.613281 27.511719 10.039062 27.609375 9.402344 C 27.703125 8.769531 28.128906 8.09375 28.9375 8.09375 C 29.746094 8.09375 35.921875 8.09375 36.585938 8.09375 C 37.25 8.09375 37.605469 8.636719 37.605469 9.402344 C 37.605469 10.167969 37.605469 15.695312 37.605469 15.695312 L 28.179688 15.695312 L 27.328125 11.613281 " fill-opacity="1" fill-rule="nonzero"/><path fill="#ffffff" d="M 28.214844 15.644531 L 37.558594 15.644531 L 37.558594 9.402344 C 37.558594 8.625 37.1875 8.140625 36.585938 8.140625 L 28.9375 8.140625 C 28.132812 8.140625 27.742188 8.824219 27.65625 9.410156 C 27.566406 10.011719 27.390625 11.488281 27.375 11.609375 Z M 37.652344 15.742188 L 28.140625 15.742188 L 28.132812 15.703125 L 27.28125 11.613281 L 27.28125 11.605469 C 27.28125 11.589844 27.46875 10.023438 27.5625 9.394531 C 27.664062 8.722656 28.128906 8.042969 28.9375 8.042969 L 36.585938 8.042969 C 37.246094 8.042969 37.652344 8.566406 37.652344 9.402344 L 37.652344 15.742188 " fill-opacity="1" fill-rule="nonzero"/></g><g clip-path="url(#f5771f8736)"><path fill="#1d1d1b" d="M 47.886719 11.613281 C 47.886719 11.613281 47.699219 10.039062 47.605469 9.402344 C 47.507812 8.769531 47.082031 8.09375 46.273438 8.09375 C 45.464844 8.09375 39.292969 8.09375 38.625 8.09375 C 37.960938 8.09375 37.605469 8.636719 37.605469 9.402344 C 37.605469 10.167969 37.605469 15.695312 37.605469 15.695312 L 47.035156 15.695312 L 47.886719 11.613281 " fill-opacity="1" fill-rule="nonzero"/><path fill="#ffffff" d="M 37.652344 15.644531 L 46.996094 15.644531 L 47.835938 11.609375 C 47.824219 11.488281 47.648438 10.011719 47.558594 9.410156 C 47.46875 8.824219 47.082031 8.140625 46.273438 8.140625 L 38.625 8.140625 C 38.027344 8.140625 37.652344 8.625 37.652344 9.402344 Z M 47.074219 15.742188 L 37.558594 15.742188 L 37.558594 9.402344 C 37.558594 8.566406 37.96875 8.042969 38.625 8.042969 L 46.273438 8.042969 C 47.085938 8.042969 47.550781 8.722656 47.652344 9.394531 C 47.746094 10.023438 47.929688 11.589844 47.933594 11.605469 L 47.933594 11.613281 L 47.929688 11.621094 L 47.074219 15.742188 " fill-opacity="1" fill-rule="nonzero"/></g><g clip-path="url(#328866ac38)"><path fill="#1d1d1b" d="M 28.324219 15.054688 C 28.324219 15.054688 28.417969 14.414062 29.484375 14.414062 L 36.882812 14.414062 C 37.28125 14.414062 37.605469 14.742188 37.605469 15.148438 L 37.605469 16.972656 L 28.605469 16.972656 L 27.847656 15.960938 L 28.324219 15.054688 " fill-opacity="1" fill-rule="nonzero"/></g><g clip-path="url(#809813bfb5)"><path fill="#ffffff" d="M 28.628906 16.925781 L 37.558594 16.925781 L 37.558594 15.148438 C 37.558594 14.769531 37.253906 14.460938 36.882812 14.460938 L 29.484375 14.460938 C 28.476562 14.460938 28.375 15.035156 28.371094 15.0625 L 28.367188 15.078125 L 27.902344 15.953125 Z M 37.652344 17.019531 L 28.582031 17.019531 L 27.789062 15.964844 L 28.28125 15.039062 C 28.296875 14.953125 28.445312 14.367188 29.484375 14.367188 L 36.882812 14.367188 C 37.308594 14.367188 37.652344 14.71875 37.652344 15.148438 L 37.652344 17.019531 " fill-opacity="1" fill-rule="nonzero"/></g><g clip-path="url(#f67eadc78b)"><path fill="#1d1d1b" d="M 46.886719 15.054688 C 46.886719 15.054688 46.796875 14.414062 45.726562 14.414062 L 38.332031 14.414062 C 37.929688 14.414062 37.605469 14.742188 37.605469 15.148438 L 37.605469 16.972656 L 46.605469 16.972656 L 47.367188 15.960938 L 46.886719 15.054688 " fill-opacity="1" fill-rule="nonzero"/></g><g clip-path="url(#a54e91457d)"><path fill="#ffffff" d="M 37.652344 16.925781 L 46.582031 16.925781 L 47.3125 15.953125 L 46.839844 15.0625 C 46.835938 15.035156 46.738281 14.460938 45.726562 14.460938 L 38.332031 14.460938 C 37.957031 14.460938 37.652344 14.769531 37.652344 15.148438 Z M 46.628906 17.019531 L 37.558594 17.019531 L 37.558594 15.148438 C 37.558594 14.71875 37.90625 14.367188 38.332031 14.367188 L 45.726562 14.367188 C 46.769531 14.367188 46.917969 14.953125 46.933594 15.039062 L 47.421875 15.964844 L 46.628906 17.019531 " fill-opacity="1" fill-rule="nonzero"/></g><g clip-path="url(#7f5acacb7d)"><path fill="#1d1d1b" d="M 49.640625 10.988281 L 48.722656 10.988281 C 48.339844 10.988281 48 11.242188 47.886719 11.613281 L 46.558594 15.863281 L 28.652344 15.863281 L 27.328125 11.613281 C 27.210938 11.242188 26.871094 10.988281 26.488281 10.988281 L 25.574219 10.988281 C 24.972656 10.988281 24.546875 11.585938 24.738281 12.164062 L 26.273438 16.878906 C 26.460938 17.453125 26.988281 17.839844 27.585938 17.839844 L 47.628906 17.839844 C 48.222656 17.839844 48.753906 17.453125 48.941406 16.878906 L 50.476562 12.164062 C 50.664062 11.585938 50.238281 10.988281 49.640625 10.988281 " fill-opacity="1" fill-rule="nonzero"/><path fill="#ffffff" d="M 25.574219 11.035156 C 25.300781 11.035156 25.054688 11.164062 24.898438 11.386719 C 24.738281 11.609375 24.695312 11.886719 24.78125 12.148438 L 26.316406 16.863281 C 26.5 17.417969 27.007812 17.792969 27.585938 17.792969 L 47.628906 17.792969 C 48.203125 17.792969 48.714844 17.417969 48.894531 16.863281 L 50.429688 12.148438 C 50.515625 11.886719 50.472656 11.609375 50.316406 11.386719 C 50.15625 11.164062 49.910156 11.035156 49.640625 11.035156 L 48.722656 11.035156 C 48.359375 11.035156 48.039062 11.273438 47.929688 11.628906 L 46.59375 15.910156 L 28.617188 15.910156 L 27.28125 11.628906 C 27.171875 11.273438 26.851562 11.035156 26.488281 11.035156 Z M 47.628906 17.890625 L 27.585938 17.890625 C 26.96875 17.890625 26.421875 17.488281 26.226562 16.894531 L 24.691406 12.179688 C 24.597656 11.886719 24.644531 11.578125 24.820312 11.332031 C 24.996094 11.082031 25.269531 10.941406 25.574219 10.941406 L 26.488281 10.941406 C 26.894531 10.941406 27.25 11.203125 27.371094 11.597656 L 28.6875 15.816406 L 46.523438 15.816406 L 47.839844 11.597656 C 47.960938 11.203125 48.316406 10.941406 48.722656 10.941406 L 49.640625 10.941406 C 49.941406 10.941406 50.214844 11.082031 50.390625 11.332031 C 50.566406 11.578125 50.613281 11.886719 50.519531 12.179688 L 48.984375 16.894531 C 48.789062 17.488281 48.246094 17.890625 47.628906 17.890625 " fill-opacity="1" fill-rule="nonzero"/></g><g fill="#1d1d1b" fill-opacity="1"><g transform="translate(27.586527, 21.497219)"><g><path d="M 1.5625 -2.90625 C 1.570312 -2.925781 1.59375 -2.9375 1.625 -2.9375 L 1.9375 -2.9375 C 1.96875 -2.9375 1.984375 -2.925781 1.984375 -2.90625 L 1.984375 -0.046875 C 1.984375 -0.015625 1.96875 0 1.9375 0 L 1.625 0 C 1.59375 0 1.578125 -0.015625 1.578125 -0.046875 L 1.578125 -2.125 C 1.578125 -2.132812 1.570312 -2.140625 1.5625 -2.140625 C 1.5625 -2.140625 1.5625 -2.132812 1.5625 -2.125 L 1.15625 -1.375 C 1.144531 -1.351562 1.128906 -1.34375 1.109375 -1.34375 C 1.097656 -1.34375 1.085938 -1.351562 1.078125 -1.375 L 0.671875 -2.125 C 0.671875 -2.132812 0.664062 -2.140625 0.65625 -2.140625 C 0.65625 -2.140625 0.65625 -2.132812 0.65625 -2.125 L 0.65625 -0.046875 C 0.65625 -0.015625 0.640625 0 0.609375 0 L 0.296875 0 C 0.265625 0 0.25 -0.015625 0.25 -0.046875 L 0.25 -2.90625 C 0.25 -2.925781 0.265625 -2.9375 0.296875 -2.9375 L 0.609375 -2.9375 C 0.628906 -2.9375 0.648438 -2.925781 0.671875 -2.90625 L 1.109375 -2.125 C 1.117188 -2.125 1.125 -2.125 1.125 -2.125 Z M 1.5625 -2.90625 "/></g></g></g><g fill="#1d1d1b" fill-opacity="1"><g transform="translate(30.818578, 21.497219)"><g><path d="M 0.96875 0.03125 C 0.738281 0.03125 0.550781 -0.0351562 0.40625 -0.171875 C 0.269531 -0.316406 0.203125 -0.503906 0.203125 -0.734375 L 0.203125 -2.203125 C 0.203125 -2.429688 0.269531 -2.613281 0.40625 -2.75 C 0.550781 -2.894531 0.738281 -2.96875 0.96875 -2.96875 C 1.195312 -2.96875 1.378906 -2.894531 1.515625 -2.75 C 1.660156 -2.613281 1.734375 -2.429688 1.734375 -2.203125 L 1.734375 -0.734375 C 1.734375 -0.503906 1.660156 -0.316406 1.515625 -0.171875 C 1.378906 -0.0351562 1.195312 0.03125 0.96875 0.03125 Z M 0.96875 -0.3125 C 1.082031 -0.3125 1.171875 -0.347656 1.234375 -0.421875 C 1.304688 -0.492188 1.34375 -0.59375 1.34375 -0.71875 L 1.34375 -2.21875 C 1.34375 -2.34375 1.304688 -2.441406 1.234375 -2.515625 C 1.171875 -2.585938 1.082031 -2.625 0.96875 -2.625 C 0.851562 -2.625 0.765625 -2.585938 0.703125 -2.515625 C 0.640625 -2.441406 0.609375 -2.34375 0.609375 -2.21875 L 0.609375 -0.71875 C 0.609375 -0.59375 0.640625 -0.492188 0.703125 -0.421875 C 0.765625 -0.347656 0.851562 -0.3125 0.96875 -0.3125 Z M 0.96875 -0.3125 "/></g></g></g><g fill="#1d1d1b" fill-opacity="1"><g transform="translate(33.764455, 21.497219)"><g><path d="M 0.296875 0 C 0.273438 0 0.265625 -0.015625 0.265625 -0.046875 L 0.265625 -2.90625 C 0.265625 -2.925781 0.273438 -2.9375 0.296875 -2.9375 L 0.984375 -2.9375 C 1.222656 -2.9375 1.410156 -2.863281 1.546875 -2.71875 C 1.679688 -2.582031 1.75 -2.390625 1.75 -2.140625 L 1.75 -0.796875 C 1.75 -0.546875 1.679688 -0.347656 1.546875 -0.203125 C 1.410156 -0.0664062 1.222656 0 0.984375 0 Z M 0.671875 -0.359375 C 0.671875 -0.347656 0.675781 -0.34375 0.6875 -0.34375 L 0.984375 -0.359375 C 1.085938 -0.359375 1.171875 -0.394531 1.234375 -0.46875 C 1.304688 -0.550781 1.34375 -0.664062 1.34375 -0.8125 L 1.34375 -2.125 C 1.34375 -2.269531 1.3125 -2.382812 1.25 -2.46875 C 1.1875 -2.550781 1.097656 -2.59375 0.984375 -2.59375 L 0.6875 -2.59375 C 0.675781 -2.59375 0.671875 -2.585938 0.671875 -2.578125 Z M 0.671875 -0.359375 "/></g></g></g><g fill="#ff914d" fill-opacity="1"><g transform="translate(36.737558, 21.497219)"><g><path d="M 1.671875 -2.640625 C 1.671875 -2.609375 1.65625 -2.59375 1.625 -2.59375 L 0.6875 -2.59375 C 0.675781 -2.59375 0.671875 -2.585938 0.671875 -2.578125 L 0.671875 -1.671875 C 0.671875 -1.648438 0.675781 -1.640625 0.6875 -1.640625 L 1.265625 -1.640625 C 1.285156 -1.640625 1.296875 -1.628906 1.296875 -1.609375 L 1.296875 -1.34375 C 1.296875 -1.3125 1.285156 -1.296875 1.265625 -1.296875 L 0.6875 -1.296875 C 0.675781 -1.296875 0.671875 -1.289062 0.671875 -1.28125 L 0.671875 -0.359375 C 0.671875 -0.347656 0.675781 -0.34375 0.6875 -0.34375 L 1.625 -0.34375 C 1.65625 -0.34375 1.671875 -0.332031 1.671875 -0.3125 L 1.671875 -0.046875 C 1.671875 -0.015625 1.65625 0 1.625 0 L 0.296875 0 C 0.273438 0 0.265625 -0.015625 0.265625 -0.046875 L 0.265625 -2.90625 C 0.265625 -2.925781 0.273438 -2.9375 0.296875 -2.9375 L 1.625 -2.9375 C 1.65625 -2.9375 1.671875 -2.925781 1.671875 -2.90625 Z M 1.671875 -2.640625 "/></g></g></g><g fill="#ff914d" fill-opacity="1"><g transform="translate(39.557184, 21.497219)"><g><path d="M 1.421875 0 C 1.398438 0 1.382812 -0.0078125 1.375 -0.03125 L 0.984375 -1.28125 C 0.984375 -1.289062 0.976562 -1.296875 0.96875 -1.296875 L 0.6875 -1.296875 C 0.675781 -1.296875 0.671875 -1.289062 0.671875 -1.28125 L 0.671875 -0.046875 C 0.671875 -0.015625 0.65625 0 0.625 0 L 0.296875 0 C 0.273438 0 0.265625 -0.015625 0.265625 -0.046875 L 0.265625 -2.90625 C 0.265625 -2.925781 0.273438 -2.9375 0.296875 -2.9375 L 1.0625 -2.9375 C 1.195312 -2.9375 1.316406 -2.898438 1.421875 -2.828125 C 1.535156 -2.765625 1.625 -2.664062 1.6875 -2.53125 C 1.75 -2.40625 1.78125 -2.265625 1.78125 -2.109375 C 1.78125 -1.929688 1.742188 -1.773438 1.671875 -1.640625 C 1.597656 -1.515625 1.5 -1.421875 1.375 -1.359375 C 1.363281 -1.347656 1.359375 -1.34375 1.359375 -1.34375 L 1.796875 -0.046875 L 1.796875 -0.03125 C 1.796875 -0.0078125 1.78125 0 1.75 0 Z M 0.6875 -2.59375 C 0.675781 -2.59375 0.671875 -2.585938 0.671875 -2.578125 L 0.671875 -1.640625 C 0.671875 -1.628906 0.675781 -1.625 0.6875 -1.625 L 0.984375 -1.625 C 1.109375 -1.625 1.203125 -1.664062 1.265625 -1.75 C 1.335938 -1.84375 1.375 -1.957031 1.375 -2.09375 C 1.375 -2.25 1.335938 -2.367188 1.265625 -2.453125 C 1.203125 -2.546875 1.109375 -2.59375 0.984375 -2.59375 Z M 0.6875 -2.59375 "/></g></g></g><g fill="#ff914d" fill-opacity="1"><g transform="translate(42.465185, 21.497219)"><g><path d="M 1.453125 -2.90625 C 1.453125 -2.925781 1.460938 -2.9375 1.484375 -2.9375 L 1.796875 -2.9375 C 1.828125 -2.9375 1.84375 -2.925781 1.84375 -2.90625 L 1.84375 -0.046875 C 1.84375 -0.015625 1.828125 0 1.796875 0 L 1.4375 0 C 1.414062 0 1.398438 -0.0078125 1.390625 -0.03125 L 0.6875 -1.953125 C 0.675781 -1.960938 0.664062 -1.960938 0.65625 -1.953125 L 0.671875 -0.046875 C 0.671875 -0.015625 0.65625 0 0.625 0 L 0.296875 0 C 0.273438 0 0.265625 -0.015625 0.265625 -0.046875 L 0.265625 -2.90625 C 0.265625 -2.925781 0.273438 -2.9375 0.296875 -2.9375 L 0.65625 -2.9375 C 0.675781 -2.9375 0.691406 -2.925781 0.703125 -2.90625 L 1.421875 -0.984375 C 1.421875 -0.972656 1.425781 -0.96875 1.4375 -0.96875 C 1.445312 -0.976562 1.453125 -0.984375 1.453125 -0.984375 Z M 1.453125 -2.90625 "/></g></g></g><g fill="#ff914d" fill-opacity="1"><g transform="translate(45.575191, 21.497219)"><g><path d="M 1.40625 0 C 1.382812 0 1.367188 -0.0078125 1.359375 -0.03125 L 1.28125 -0.515625 C 1.28125 -0.523438 1.273438 -0.53125 1.265625 -0.53125 C 1.265625 -0.53125 1.257812 -0.53125 1.25 -0.53125 L 0.5625 -0.53125 C 0.5625 -0.53125 0.554688 -0.53125 0.546875 -0.53125 C 0.546875 -0.53125 0.546875 -0.523438 0.546875 -0.515625 L 0.453125 -0.03125 C 0.453125 -0.0078125 0.4375 0 0.40625 0 L 0.09375 0 C 0.0820312 0 0.0703125 -0.00390625 0.0625 -0.015625 C 0.0507812 -0.0234375 0.046875 -0.0351562 0.046875 -0.046875 L 0.6875 -2.90625 C 0.6875 -2.925781 0.703125 -2.9375 0.734375 -2.9375 L 1.09375 -2.9375 C 1.125 -2.9375 1.140625 -2.925781 1.140625 -2.90625 L 1.78125 -0.046875 L 1.78125 -0.03125 C 1.78125 -0.0078125 1.765625 0 1.734375 0 Z M 0.625 -0.875 C 0.625 -0.863281 0.625 -0.859375 0.625 -0.859375 L 1.1875 -0.859375 C 1.195312 -0.859375 1.203125 -0.863281 1.203125 -0.875 L 0.921875 -2.359375 C 0.910156 -2.367188 0.90625 -2.375 0.90625 -2.375 C 0.90625 -2.375 0.90625 -2.367188 0.90625 -2.359375 Z M 0.625 -0.875 "/></g></g></g></svg>